<?xml version="1.0" standalone="no"?>
<!DOCTYPE svg PUBLIC "-//W3C//DTD SVG 20010904//EN"
 "http://www.w3.org/TR/2001/REC-SVG-20010904/DTD/svg10.dtd">
<svg version="1.0" xmlns="http://www.w3.org/2000/svg"
 width="954.000000pt" height="472.000000pt" viewBox="0 0 954.000000 472.000000"
 preserveAspectRatio="xMidYMid meet">

<g transform="translate(0.000000,472.000000) scale(0.100000,-0.100000)"
fill="#000000" stroke="none">
<path d="M1260 3019 c-120 -115 -203 -203 -209 -221 -8 -23 -7 -36 4 -56 7
-15 138 -151 289 -302 l276 -275 -52 -52 c-48 -48 -53 -51 -72 -37 -11 8 -34
14 -50 14 -26 0 -65 -35 -280 -249 -234 -234 -250 -252 -250 -286 0 -30 9 -44
52 -87 87 -88 79 -92 356 177 130 127 243 240 251 252 20 29 19 87 -1 103 -13
12 -8 21 45 74 47 48 61 68 61 91 0 26 -40 70 -287 317 l-288 288 187 187 187
187 26 -24 25 -24 -21 -23 c-18 -18 -20 -25 -9 -38 21 -25 34 -18 100 50 61
64 62 66 45 86 -18 19 -19 19 -42 -3 l-23 -21 -22 20 c-29 26 -62 43 -83 43
-8 0 -105 -86 -215 -191z"/>
<path d="M1694 3142 c-64 -47 -171 -167 -179 -201 -16 -73 -15 -74 408 -499
221 -222 414 -410 429 -418 34 -18 82 -18 116 0 48 25 191 179 202 216 21 74
18 77 -412 506 -222 221 -413 407 -425 413 -40 20 -97 13 -139 -17z m124 -26
c15 -8 204 -192 420 -408 357 -358 392 -397 392 -426 0 -36 -15 -72 -30 -72
-6 0 -10 14 -10 32 0 30 -1 30 -19 14 -27 -25 -77 -18 -72 9 11 66 6 89 -23
103 -35 17 -46 6 -46 -49 0 -47 -24 -58 -57 -28 -32 31 -29 60 12 109 40 48
40 49 21 75 -10 14 -26 20 -54 20 -32 0 -50 -9 -96 -47 -33 -27 -63 -45 -72
-41 -20 7 -18 47 6 92 29 59 36 116 16 146 -15 22 -23 25 -79 25 -97 0 -137
43 -137 149 0 46 -2 50 -31 60 -23 8 -40 7 -70 -3 l-39 -14 6 38 c10 63 -13
62 -71 -3 -40 -45 -53 -55 -63 -45 -22 22 -13 44 32 75 48 34 66 79 39 100 -8
6 -12 16 -9 21 8 13 -12 29 -46 37 -30 8 -28 22 6 35 30 13 44 12 74 -4z"/>
<path d="M3251 2941 c-49 -13 -113 -61 -134 -101 -26 -49 -19 -131 14 -166 37
-41 84 -56 203 -63 102 -7 111 -9 133 -35 29 -34 29 -65 1 -101 -29 -37 -76
-55 -143 -55 -66 0 -118 20 -161 61 l-30 29 -29 -30 -29 -30 33 -34 c53 -55
122 -80 216 -81 69 0 88 4 140 30 117 58 151 182 75 269 -36 40 -81 54 -212
65 -54 4 -104 13 -112 20 -36 30 -17 99 35 127 48 24 142 15 197 -20 23 -14
46 -26 51 -26 5 0 19 13 31 29 l20 30 -33 25 c-18 14 -50 32 -71 41 -45 19
-148 27 -195 16z"/>
<path d="M4583 2936 c-60 -20 -107 -51 -152 -102 -128 -146 -75 -382 107 -471
80 -39 191 -40 273 -2 242 114 243 446 1 557 -67 30 -167 38 -229 18z m192
-95 c46 -21 89 -62 113 -106 21 -38 20 -137 -1 -185 -35 -79 -118 -130 -210
-130 -133 0 -229 93 -228 221 0 91 41 156 127 199 51 25 145 26 199 1z"/>
<path d="M3702 2638 l3 -293 43 -3 42 -3 0 135 0 135 35 7 c19 3 80 1 136 -6
56 -6 119 -8 140 -5 l39 7 0 -137 0 -136 43 3 42 3 3 293 2 292 -45 0 -45 0 0
-115 0 -114 -37 -7 c-20 -4 -84 -2 -141 3 -58 6 -121 7 -139 3 l-33 -8 0 119
0 119 -45 0 -45 0 2 -292z"/>
<path d="M5130 2634 l0 -295 43 3 42 3 3 112 c3 128 -2 122 108 130 l70 6 34
-79 c54 -122 112 -174 198 -174 20 0 22 5 22 45 0 43 -1 45 -28 45 -35 0 -70
36 -106 107 l-26 53 32 14 c135 57 136 256 2 312 -24 10 -82 14 -214 14 l-180
0 0 -296z m386 183 c45 -52 24 -118 -44 -137 -20 -5 -77 -10 -125 -10 -49 0
-97 -5 -108 -10 -18 -10 -19 -6 -19 91 l0 101 136 -4 c134 -4 137 -4 160 -31z"/>
<path d="M5792 2638 l3 -293 225 0 225 0 3 43 3 42 -185 0 -186 0 0 75 c0 72
1 76 26 85 14 6 68 10 120 10 l94 0 0 46 0 46 -102 -4 c-57 -2 -111 -8 -120
-12 -16 -7 -18 0 -18 78 l0 86 165 0 165 0 0 45 0 45 -210 0 -210 0 2 -292z"/>
<path d="M6380 2635 l0 -295 210 0 210 0 0 45 0 45 -165 0 -165 0 0 250 0 250
-45 0 -45 0 0 -295z"/>
<path d="M6900 2634 l0 -295 43 3 42 3 3 293 2 292 -45 0 -45 0 0 -296z"/>
<path d="M7144 2888 l36 -42 0 -253 0 -253 40 0 40 0 2 202 3 202 169 -203
169 -202 41 3 41 3 3 293 2 292 -45 0 -45 0 -2 -222 -3 -221 -185 221 -185
221 -58 0 -59 1 36 -42z"/>
<path d="M7860 2635 l0 -295 225 0 225 0 0 45 0 45 -180 0 -180 0 0 75 c0 72
1 76 26 85 14 6 68 10 120 10 l94 0 0 45 0 45 -88 0 c-48 0 -102 -4 -120 -9
l-32 -10 0 84 0 85 163 2 162 3 3 43 3 42 -210 0 -211 0 0 -295z"/>
<path d="M3228 2115 c-121 -45 -180 -160 -143 -279 41 -130 176 -196 306 -151
44 16 89 50 89 68 0 6 -7 19 -16 28 -16 18 -18 18 -46 -6 -83 -70 -218 -43
-263 51 -23 48 -17 130 13 171 46 65 156 85 233 41 40 -22 41 -22 55 -3 19 26
18 31 -13 53 -62 42 -144 53 -215 27z"/>
<path d="M3721 2118 c-106 -30 -180 -136 -165 -238 34 -235 339 -287 451 -76
22 40 21 138 -1 188 -45 103 -171 159 -285 126z m124 -63 c94 -19 146 -149 94
-234 -28 -46 -56 -68 -106 -80 -109 -28 -213 50 -213 159 0 48 27 104 63 130
25 18 96 39 117 35 8 -2 29 -6 45 -10z"/>
<path d="M6180 2121 c-70 -22 -139 -82 -161 -140 -16 -40 -12 -122 6 -169 10
-23 37 -59 61 -80 74 -66 170 -80 259 -38 69 32 81 48 60 80 l-17 26 -31 -24
c-79 -60 -171 -55 -238 13 -79 78 -57 205 43 257 43 22 121 20 170 -6 l41 -21
21 21 c21 21 21 21 1 37 -60 46 -148 64 -215 44z"/>
<path d="M7070 2121 c-170 -52 -226 -242 -110 -374 130 -148 394 -63 408 132
12 161 -145 288 -298 242z m172 -92 c59 -42 79 -139 44 -207 -19 -37 -76 -77
-123 -87 -78 -16 -171 42 -193 120 -35 125 71 231 204 203 21 -5 52 -18 68
-29z"/>
<path d="M8030 2107 c-45 -23 -80 -74 -80 -114 0 -67 66 -113 163 -113 59 0
107 -13 119 -33 16 -25 8 -66 -17 -85 -55 -44 -158 -36 -209 15 l-27 27 -21
-22 -22 -22 29 -30 c42 -44 103 -64 175 -57 107 9 176 73 167 155 -8 74 -63
112 -161 112 -92 0 -141 34 -116 80 25 47 110 56 182 19 l42 -21 18 22 c18 22
18 23 -14 46 -66 49 -159 57 -228 21z"/>
<path d="M4114 2089 c26 -30 26 -31 26 -220 l0 -189 35 0 34 0 3 144 3 145
120 -145 c109 -132 122 -144 152 -144 l33 0 0 221 0 220 -32 -3 -33 -3 -5
-160 -5 -160 -135 162 -135 162 -43 0 -44 1 26 -31z"/>
<path d="M4600 2085 l0 -35 80 0 80 0 0 -185 0 -185 30 0 30 0 0 185 0 185 80
0 80 0 0 35 0 35 -190 0 -190 0 0 -35z"/>
<path d="M5060 1900 l0 -220 35 0 35 0 0 84 c0 94 1 96 88 96 l43 0 29 -64
c35 -76 78 -116 126 -116 31 0 34 3 34 29 0 24 -5 30 -30 34 -22 5 -36 19 -60
59 -16 29 -30 55 -30 58 0 3 13 11 30 17 65 24 90 121 47 184 -32 47 -71 58
-219 58 l-128 1 0 -220z m285 136 c22 -16 23 -72 1 -94 -10 -10 -46 -17 -115
-21 l-101 -6 0 67 0 68 98 0 c67 0 104 -4 117 -14z"/>
<path d="M5682 2093 c9 -25 0 -49 -81 -212 -50 -102 -91 -188 -91 -193 0 -15
68 -9 74 7 11 29 71 45 170 45 l95 0 16 -30 c13 -25 22 -30 51 -30 20 0 34 4
32 9 -1 4 -48 103 -103 219 l-100 212 -37 0 c-35 0 -36 -1 -26 -27z m92 -192
l45 -88 -77 -6 c-42 -3 -85 -8 -94 -12 -13 -5 -5 19 30 94 26 56 48 101 49
101 2 0 23 -40 47 -89z"/>
<path d="M6470 2085 l0 -35 80 0 80 0 0 -185 0 -185 30 0 30 0 0 185 0 184 78
3 77 3 0 30 0 30 -187 3 -188 2 0 -35z"/>
<path d="M7470 1900 l0 -220 35 0 35 0 0 84 c0 94 1 96 87 96 43 0 43 0 77
-67 41 -83 63 -103 115 -110 40 -6 41 -5 41 26 0 23 -4 31 -18 31 -22 0 -63
42 -86 87 l-16 31 34 20 c53 31 69 63 64 122 -6 60 -34 95 -87 110 -20 5 -91
10 -158 10 l-123 0 0 -220z m295 126 c18 -27 12 -68 -11 -87 -8 -7 -60 -15
-114 -18 l-100 -6 0 67 0 68 105 0 c99 0 105 -1 120 -24z"/>
</g>
</svg>
